<svg id="Layer_1" data-name="Layer 1" xmlns="http://www.w3.org/2000/svg" viewBox="0 0 2000 2000"><defs><style>.cls-1,.cls-4,.cls-5,.cls-6,.cls-7{fill:none;}.cls-1,.cls-3,.cls-4,.cls-6,.cls-7{stroke:#000;}.cls-1,.cls-3,.cls-4,.cls-5,.cls-6,.cls-7{stroke-miterlimit:10;}.cls-2,.cls-3{fill:#fff;}.cls-4,.cls-6{stroke-width:8px;}.cls-5{stroke:#fff;}.cls-6,.cls-7{stroke-linecap:round;}.cls-7{stroke-width:7px;}</style></defs><title>Artboard 1</title><path d="M635.85,933.86l-.81,16.7H541.13v63.28h76.74v16.7H541.13v67h94.72l.53,16.69H521.55V933.86Z"/><path d="M681.1,933.86l91.76,131.95,14.49,24.51h.27l-1.07-27.2V933.86h18.78v180.42H782.52l-92-131.94-14-24.24h-.27l.81,24.24v131.94H658.83V933.86Z"/><path d="M918.47,930.63c20.93,0,40,5.66,54.2,14.55l-7.24,15.34a93,93,0,0,0-47.76-12.38c-18,0-32.47,4.31-43.47,14.27-18,16.16-25,39.58-25,63.28,0,38,18,74.86,69.49,74.86,19.59,0,35.42-4.85,50.71-11.85l5.63,14.81c-17.44,8.89-35.68,14.27-58.22,14.27-60.1,0-88.27-40.93-88.27-90.47C828.59,978.57,857,930.63,918.47,930.63Z"/><path d="M1045.15,930.63c47.22,0,75.93,17,75.93,52,0,25.32-14.22,44.17-42.39,52.52l39.44,64.62c3.22,5.39,5.9,9.7,7.78,14.54h-21.46l-45.08-75.13a150.34,150.34,0,0,1-19.58,1.08c-6.44,0-14.76-.27-22.81-1.08v75.13H997.4V934.94A291.62,291.62,0,0,1,1045.15,930.63Zm31.13,87.25c15.56-5.92,24.14-16.69,24.14-33.66,0-24.23-19.85-36.35-55-36.35a214,214,0,0,0-28.44,1.88v72.44c8,.81,15.83,1.08,22.81,1.08C1053.47,1023.27,1066.35,1021.92,1076.28,1017.88Z"/><path d="M1276.33,933.86c-2.95,7-8.59,15.35-13.69,23.7l-52.05,82.4v74.32h-19.31V1040l-51-82.4c-5.1-8.08-10.47-16.69-13.42-23.7h22l37,60.86,15.29,25.58h.27l53.93-86.44Z"/><path d="M1332.85,930.63c53.67-.8,78.08,19.39,78.08,54.94,0,41.2-29,61.93-80.22,61.93a179.06,179.06,0,0,1-23.88-1.61v68.39h-19.59V934.94A331.64,331.64,0,0,1,1332.85,930.63Zm33,94.25c16.63-6.73,24.41-19.92,24.41-38,0-25.85-17.44-39-55-39a202.77,202.77,0,0,0-28.44,1.88v79.71a175.08,175.08,0,0,0,20.93,1.08C1343.32,1030.54,1356.46,1028.92,1365.86,1024.88Z"/><path d="M1565.51,933.86l-.8,17h-66v163.45h-19.59V950.83h-66.54l-.54-17Z"/><path d="M1791.17,933.86l91.76,131.95,14.48,24.51h.27l-1.07-27.2V933.86h18.78v180.42h-22.81l-92-131.94-14-24.24h-.26l.8,24.24v131.94H1768.9V933.86Z"/><polyline class="cls-1" points="123.46 918.33 185.65 980.51 341.12 980.51 418.85 980.51 434.4 980.51"/><path class="cls-2" d="M120.8,921a3.76,3.76,0,1,1,5.32,0A3.78,3.78,0,0,1,120.8,921Z"/><path d="M120.45,921.34a4.26,4.26,0,1,0,0-6,4.26,4.26,0,0,0,0,6Zm5.32-5.32a3.26,3.26,0,1,1-4.61,0,3.27,3.27,0,0,1,4.61,0Z"/><path class="cls-2" d="M434.4,984.27a3.76,3.76,0,1,0-3.76-3.76A3.76,3.76,0,0,0,434.4,984.27Z"/><path d="M434.4,984.77a4.26,4.26,0,1,1,4.26-4.26,4.26,4.26,0,0,1-4.26,4.26Zm0-7.52a3.26,3.26,0,1,0,3.26,3.26,3.27,3.27,0,0,0-3.26-3.26Z"/><polyline class="cls-1" points="154.56 918.33 185.65 949.42 372.21 949.42 387.76 964.97 418.85 964.97"/><rect class="cls-2" x="151.26" y="915.03" width="6.6" height="6.6" transform="translate(-604.09 378.26) rotate(-45)"/><path d="M149.18,918.33l5.38,5.37,5.37-5.37L154.56,913Zm5.38,4-4-4,4-4,4,4Z"/><path class="cls-2" d="M418.85,968.73a3.76,3.76,0,1,0-3.76-3.76A3.76,3.76,0,0,0,418.85,968.73Z"/><path d="M418.85,969.23a4.26,4.26,0,1,1,4.26-4.26,4.26,4.26,0,0,1-4.26,4.26Zm0-7.52a3.26,3.26,0,1,0,3.26,3.26,3.26,3.26,0,0,0-3.26-3.26Z"/><polyline class="cls-1" points="139.01 980.51 123.46 964.97 107.92 964.97 107.92 1011.61 294.48 1011.61 372.21 1011.61 418.85 1011.61 434.4 1027.15"/><path class="cls-2" d="M141.67,977.86a3.76,3.76,0,1,1-5.32,0A3.75,3.75,0,0,1,141.67,977.86Z"/><path d="M142,977.5a4.26,4.26,0,1,0,0,6,4.26,4.26,0,0,0,0-6Zm-5.32,5.32a3.26,3.26,0,1,1,4.61,0,3.27,3.27,0,0,1-4.61,0Z"/><path class="cls-2" d="M431.74,1029.81a3.76,3.76,0,1,0,0-5.31A3.76,3.76,0,0,0,431.74,1029.81Z"/><path d="M431.39,1030.17a4.26,4.26,0,1,1,6,0,4.27,4.27,0,0,1-6,0Zm5.31-5.32a3.26,3.26,0,1,0,0,4.61,3.27,3.27,0,0,0,0-4.61Z"/><polyline class="cls-1" points="146.78 1027.15 100.14 1027.15 131.24 1058.25 162.33 1058.25"/><path class="cls-2" d="M146.78,1023.39a3.76,3.76,0,1,1-3.76,3.76A3.76,3.76,0,0,1,146.78,1023.39Z"/><path d="M146.78,1022.89a4.26,4.26,0,1,0,4.26,4.26,4.27,4.27,0,0,0-4.26-4.26Zm0,7.52a3.26,3.26,0,1,1,3.26-3.26,3.26,3.26,0,0,1-3.26,3.26Z"/><polyline class="cls-1" points="403.31 918.33 387.76 918.33 372.21 933.87 341.12 933.87 201.2 933.87 185.65 918.33 185.65 902.78 170.1 902.78"/><path class="cls-2" d="M403.3,914.57a3.76,3.76,0,1,1-3.76,3.76A3.76,3.76,0,0,1,403.3,914.57Z"/><path d="M403.3,914.07a4.26,4.26,0,1,0,4.26,4.26,4.27,4.27,0,0,0-4.26-4.26Zm0,7.52a3.26,3.26,0,1,1,3.26-3.26,3.27,3.27,0,0,1-3.26,3.26Z"/><path class="cls-2" d="M170.1,899a3.76,3.76,0,1,0,3.76,3.76A3.76,3.76,0,0,0,170.1,899Z"/><path d="M170.1,898.52a4.26,4.26,0,1,1-4.26,4.26,4.26,4.26,0,0,1,4.26-4.26Zm0,7.52a3.26,3.26,0,1,0-3.26-3.26A3.26,3.26,0,0,0,170.1,906Z"/><line class="cls-1" x1="142.62" y1="1042.7" x2="185.65" y2="1042.7"/><rect class="cls-2" x="139.51" y="1039.4" width="6.6" height="6.6"/><path d="M139,1046.5h7.6v-7.6H139Zm6.6-1H140v-5.6h5.6Z"/><polyline class="cls-1" points="356.66 1073.8 387.76 1073.8 418.85 1104.89"/><circle class="cls-2" cx="418.85" cy="1104.89" r="3.76" transform="translate(-658.6 619.79) rotate(-45)"/><path d="M415.84,1107.9a4.26,4.26,0,1,1,6,0,4.26,4.26,0,0,1-6,0Zm5.32-5.32a3.26,3.26,0,1,0,0,4.61,3.27,3.27,0,0,0,0-4.61Z"/><polyline class="cls-1" points="356.66 1089.34 387.76 1089.34 418.85 1120.43 387.76 1120.43 387.76 1104.89"/><circle class="cls-2" cx="387.76" cy="1104.89" r="3.76"/><path d="M392,1104.89a4.26,4.26,0,1,1-4.26-4.26,4.26,4.26,0,0,1,4.26,4.26Zm-7.52,0a3.26,3.26,0,1,0,3.26-3.26,3.26,3.26,0,0,0-3.26,3.26Z"/><rect class="cls-3" x="201.2" y="918.33" width="124.37" height="93.28"/><path class="cls-4" d="M456.72,1033.61c0,106.78-86.57,193.36-193.37,193.36S70,1140.39,70,1033.61s86.57-193.38,193.36-193.38S456.72,926.81,456.72,1033.61Z"/><path d="M263.35,1157.57c-49.53,0-24.84,0-74.37,0-1.85.09-11.19,0-11.19,0-12.6.16-16.38-5.74-16.35-15.68.1-27.45-.61-86.82.51-114.24.44-10.82,5.21-14.62,7.67-16.82,3.64-3.25,9.3-3.16,9.29-7.47,0-17.76-.48-35.57.43-53.29,1.58-31,24.93-57.14,55.69-61.27,15.49-2.08,10.87-1.4,28.32-1.53m0,33.66c-12.57-.43-6.45-.11-19,.34-16.06.57-30.22,13.3-31.06,29.2-1,17.9-.22,35.89-.22,54.41h50.3m0-117.61v33.66l-19,.34"/><path d="M263.35,887.25c17.46.14,12.84-.55,28.32,1.53,30.77,4.14,54.11,30.29,55.7,61.27.9,17.73.48,35.53.43,53.3,0,4.31,5.65,4.21,9.29,7.47,2.46,2.2,7.22,6,7.67,16.82,1.11,27.42.41,86.79.5,114.23,0,10-3.75,15.85-16.34,15.69,0,0-9.34.06-11.19,0-49.53,0-24.85,0-74.38,0m0-152.71h50.3c0-18.53.73-36.52-.21-54.42-.85-15.89-15-28.62-31.07-29.2-12.57-.45-6.45-.77-19-.33m19,.33-19-.33V887.25"/><path class="cls-2" d="M271.29,1032.46l.11.23a11.37,11.37,0,0,1-1.16,0h-4.55v53.89c.24-.22.44-.39.63-.58l2.73-2.58,1.58-1.5,1.52-1.45,1.66-1.57,1.64-1.55c.55-.52,1.09-1,1.65-1.57s1.38-1.28,2.06-1.93c.43-.4.84-.81,1.25-1.22a4.35,4.35,0,0,0,.33-.42,7.28,7.28,0,0,0,1.26-4.13V1067c0-3.11,0-6.21,0-9.32,0-.15,0-.29,0-.46h-4.57c-.07-.25-.11-13.27,0-14,.22-.06,13.49-.08,13.9,0v13.94h-4.65c0,.13,0,.23,0,.34v10.33a11.08,11.08,0,0,1-.36,3.09,13.45,13.45,0,0,1-1.35,3.17,15.23,15.23,0,0,1-2,2.7,4.12,4.12,0,0,1-.31.28l-2.7,2.55c-.65.61-1.3,1.21-1.94,1.83s-1.1,1-1.64,1.54l-1.64,1.55c-.54.52-1.09,1-1.63,1.56l-1.68,1.59-1.68,1.59c-.73.69-1.47,1.37-2.18,2.08a4.72,4.72,0,0,0-.75,1,6.81,6.81,0,0,0-1.07,3.61q0,12.54,0,25.1v.31a11.52,11.52,0,0,1,8.49,7,11.11,11.11,0,0,1,.27,8.14,11.66,11.66,0,0,1-12.35,7.89,11.66,11.66,0,0,1-1-23c0-.13,0-.24,0-.34v-7.61a6.37,6.37,0,0,0-.42-2.33,6.47,6.47,0,0,0-1.17-2.06c-.39-.43-.83-.82-1.25-1.22l-2.08-2c-.69-.64-1.38-1.27-2.06-1.93l-1.63-1.54-1.66-1.58-1.52-1.43-1.89-1.8-1.87-1.8c-.56-.54-1.14-1-1.69-1.59a12.89,12.89,0,0,1-1.28-1.57,16.54,16.54,0,0,1-1.12-1.85c-.13-.25-.23-.52-.35-.78a11,11,0,0,1-.95-4.56c0-3.57,0-7.15,0-10.72a2.25,2.25,0,0,1,0-.26c0-.19-.06-.28-.24-.34a6.61,6.61,0,0,1-2.24-1.42,6.9,6.9,0,0,1-1.86-7.21,6.15,6.15,0,0,1,1-1.94,7.63,7.63,0,0,1,1.36-1.42,7.52,7.52,0,0,1,2.1-1.1,6.5,6.5,0,0,1,3.6-.22,7,7,0,0,1,2.31.94,7.21,7.21,0,0,1,2.12,2.07,6.85,6.85,0,0,1,1.06,4.83,6,6,0,0,1-.59,2,7.15,7.15,0,0,1-1.38,1.94,7.35,7.35,0,0,1-2.32,1.52l-.23.1-.05,0a2.17,2.17,0,0,0,0,.26c0,3.78,0,7.56,0,11.33a6.61,6.61,0,0,0,.9,3.28,6.11,6.11,0,0,0,1.46,1.78c.38.31.71.68,1.07,1l1.22,1.15,1.34,1.28,1.11,1,1.26,1.2,1,1q1.86,1.73,3.7,3.48l1.66,1.57,1.43,1.35.09.07,0,0s0,0,0,0q0-35.49,0-71a1.06,1.06,0,0,0,0-.23h-5.65c.06-.32,7.72-13.52,8-13.91.14.23.29.44.42.66.54.92,1.07,1.86,1.6,2.78l1.19,2.1,1.18,2c.11.18.21.39.32.58.46.79.92,1.57,1.37,2.36l1.28,2.26Z"/><polyline class="cls-1" points="356.66 1066.02 403.31 1066.02 431.54 1094.25"/><path class="cls-2" d="M428.73,1096.76a3.76,3.76,0,1,0,0-5.32A3.75,3.75,0,0,0,428.73,1096.76Z"/><path d="M428.37,1097.12a4.26,4.26,0,1,1,6,0,4.27,4.27,0,0,1-6,0Zm5.32-5.32a3.26,3.26,0,1,0,0,4.61,3.27,3.27,0,0,0,0-4.61Z"/><polyline class="cls-1" points="364.44 1058.25 434.4 1058.25 434.4 1073.8"/><rect class="cls-2" x="431.1" y="1070.49" width="6.6" height="6.6"/><path d="M430.6,1077.6V1070h7.6v7.61Zm1-6.61v5.61h5.6V1071Z"/><polyline class="cls-1" points="162.33 1073.8 107.92 1073.8 84.6 1097.12"/><polyline class="cls-1" points="162.33 1081.57 115.69 1081.57 84.6 1112.66"/><polyline class="cls-1" points="162.33 1089.34 123.46 1089.34 92.37 1120.43"/><polyline class="cls-1" points="162.33 1097.12 131.24 1097.12 115.69 1112.66"/><path class="cls-2" d="M113,1110a3.76,3.76,0,1,0,5.32,0A3.76,3.76,0,0,0,113,1110Z"/><path d="M112.68,1109.65a4.26,4.26,0,1,1,0,6,4.26,4.26,0,0,1,0-6ZM118,1115a3.26,3.26,0,1,0-4.61,0,3.25,3.25,0,0,0,4.61,0Z"/><polyline class="cls-1" points="162.33 1104.89 139.01 1104.89 115.69 1128.21 100.14 1128.21"/><polyline class="cls-1" points="162.33 1120.43 131.24 1151.53 123.46 1151.53 123.46 1135.98 139.01 1120.43"/><path class="cls-2" d="M141.67,1123.09a3.76,3.76,0,1,0-5.32,0A3.75,3.75,0,0,0,141.67,1123.09Z"/><path d="M142,1123.45a4.26,4.26,0,1,1,0-6,4.26,4.26,0,0,1,0,6Zm-5.32-5.32a3.26,3.26,0,1,0,4.61,0,3.27,3.27,0,0,0-4.61,0Z"/><polyline class="cls-1" points="224.52 895.01 216.74 887.23 162.33 887.23 146.78 902.78"/><path class="cls-2" d="M144.12,900.12a3.76,3.76,0,1,0,5.32,0A3.78,3.78,0,0,0,144.12,900.12Z"/><path d="M143.77,899.77a4.26,4.26,0,1,1,0,6,4.26,4.26,0,0,1,0-6Zm5.32,5.32a3.26,3.26,0,1,0-4.61,0,3.27,3.27,0,0,0,4.61,0C150.36,903.81,147.82,906.36,149.09,905.09Z"/><polyline class="cls-1" points="333.34 918.33 364.44 918.33 379.98 902.78 356.66 902.78 348.89 910.55"/><path class="cls-2" d="M346.23,907.9a3.76,3.76,0,1,0,5.32,0A3.75,3.75,0,0,0,346.23,907.9Z"/><path d="M345.88,907.54a4.26,4.26,0,1,1,0,6,4.26,4.26,0,0,1,0-6Zm5.32,5.32a3.26,3.26,0,1,0-4.61,0,3.27,3.27,0,0,0,4.61,0Z"/><polyline class="cls-1" points="310.02 895.01 348.89 895.01 356.66 887.23"/><path class="cls-2" d="M359.32,889.89a3.75,3.75,0,1,0-5.31,0A3.75,3.75,0,0,0,359.32,889.89Z"/><path d="M359.68,890.25a4.26,4.26,0,1,1,0-6,4.27,4.27,0,0,1,0,6C358,891.91,361.34,888.58,359.68,890.25Zm-5.32-5.32a3.26,3.26,0,1,0,4.61,0,3.27,3.27,0,0,0-4.61,0Z"/><polyline class="cls-1" points="232.29 879.46 247.84 879.46 247.84 856.14"/><circle class="cls-2" cx="247.84" cy="856.14" r="3.76"/><path d="M252.1,856.14a4.26,4.26,0,1,1-4.26-4.26,4.26,4.26,0,0,1,4.26,4.26Zm-7.52,0a3.26,3.26,0,1,0,3.26-3.26,3.26,3.26,0,0,0-3.26,3.26Z"/><polyline class="cls-1" points="317.8 887.23 325.57 887.23 341.12 871.69 310.02 871.69 286.7 895.01"/><path class="cls-2" d="M284.05,892.35a3.76,3.76,0,1,0,5.31,0A3.76,3.76,0,0,0,284.05,892.35Z"/><path d="M283.69,892a4.26,4.26,0,1,1,0,6,4.27,4.27,0,0,1,0-6Zm5.32,5.32a3.26,3.26,0,1,0-4.61,0,3.27,3.27,0,0,0,4.61,0Z"/><polyline class="cls-1" points="263.38 1151.53 247.84 1167.08 247.84 1205.94"/><circle class="cls-2" cx="247.84" cy="1205.94" r="3.76"/><path d="M243.58,1205.94a4.26,4.26,0,1,1,4.26,4.26,4.26,4.26,0,0,1-4.26-4.26Zm7.52,0a3.26,3.26,0,1,0-3.26,3.26,3.27,3.27,0,0,0,3.26-3.26Z"/><polyline class="cls-1" points="263.38 1186.79 263.38 1167.08 278.93 1151.53"/><rect class="cls-2" x="260.08" y="1183.29" width="6.6" height="6.6"/><path d="M267.18,1190.4v-7.61h-7.6v7.61Zm-1-6.61v5.61h-5.6v-5.61Z"/><polyline class="cls-1" points="286.7 1151.53 286.7 1205.94 278.93 1205.94"/><path class="cls-2" d="M278.93,1202.18a3.76,3.76,0,1,0,3.76,3.76A3.76,3.76,0,0,0,278.93,1202.18Z"/><path d="M278.93,1201.68a4.26,4.26,0,1,1-4.26,4.26,4.26,4.26,0,0,1,4.26-4.26Zm0,7.52a3.26,3.26,0,1,0-3.26-3.26,3.26,3.26,0,0,0,3.26,3.26Z"/><polyline class="cls-1" points="294.48 1151.53 294.48 1182.62 310.02 1198.17"/><path class="cls-2" d="M307.37,1200.83a3.76,3.76,0,1,0,0-5.32A3.75,3.75,0,0,0,307.37,1200.83Z"/><path d="M307,1201.18a4.26,4.26,0,1,1,6,0,4.26,4.26,0,0,1-6,0Zm5.32-5.32a3.26,3.26,0,1,0,0,4.61,3.27,3.27,0,0,0,0-4.61C311.06,1194.59,313.6,1197.14,312.33,1195.86Z"/><polyline class="cls-1" points="333.34 1151.53 333.34 1167.08 310.02 1167.08"/><path class="cls-2" d="M310,1163.32a3.76,3.76,0,1,0,3.76,3.76A3.76,3.76,0,0,0,310,1163.32Z"/><path d="M310,1162.82a4.26,4.26,0,1,1-4.26,4.26,4.26,4.26,0,0,1,4.26-4.26Zm0,7.52a3.26,3.26,0,1,0-3.26-3.26,3.27,3.27,0,0,0,3.26,3.26Z"/><polyline class="cls-1" points="348.89 1151.53 348.89 1167.08 341.12 1174.85 317.8 1174.85 310.02 1182.62"/><path class="cls-2" d="M307.37,1180a3.76,3.76,0,1,0,5.31,0A3.76,3.76,0,0,0,307.37,1180Z"/><path d="M307,1179.61a4.26,4.26,0,1,1,0,6,4.27,4.27,0,0,1,0-6Zm5.32,5.32a3.26,3.26,0,1,0-4.61,0,3.27,3.27,0,0,0,4.61,0Z"/><polyline class="cls-1" points="185.65 1003.83 115.69 1003.83 115.69 980.51 123.46 988.29"/><rect class="cls-2" x="120.16" y="984.99" width="6.6" height="6.6" transform="translate(-662.66 376.76) rotate(-45)"/><path d="M123.46,993.66l-5.37-5.37,5.37-5.38,5.38,5.38Zm-4-5.37,4,4,4-4-4-4Z"/><polyline class="cls-1" points="185.65 996.06 146.78 996.06 139.01 996.06 154.56 980.51 123.46 949.42"/><circle class="cls-2" cx="123.46" cy="949.42" r="3.76" transform="translate(-541.75 260.85) rotate(-36.6)"/><path d="M126.47,946.41a4.26,4.26,0,1,1-6,0,4.24,4.24,0,0,1,6,0Zm-5.31,5.32a3.26,3.26,0,1,0,0-4.61,3.27,3.27,0,0,0,0,4.61Z"/><polyline class="cls-1" points="185.65 988.29 154.56 988.29 170.1 972.74 131.24 933.87 100.14 933.87"/><polyline class="cls-1" points="162.33 1050.47 131.24 1050.47 115.69 1034.93 170.1 1034.93 154.56 1019.38 92.37 1019.38 100.14 1011.61 100.14 972.74"/><path class="cls-2" d="M103.9,972.74a3.76,3.76,0,1,0-3.76,3.76A3.76,3.76,0,0,0,103.9,972.74Z"/><path d="M104.4,972.74a4.26,4.26,0,1,1-4.26-4.26,4.26,4.26,0,0,1,4.26,4.26Zm-7.52,0a3.26,3.26,0,1,0,3.26-3.26,3.26,3.26,0,0,0-3.26,3.26Z"/><polyline class="cls-1" points="170.1 1066.02 115.69 1066.02 84.6 1034.93 84.6 1011.61 92.37 1003.83 92.37 996.06"/><rect class="cls-2" x="89.07" y="992.76" width="6.6" height="6.6"/><path d="M96.17,992.26v7.6h-7.6v-7.6Zm-1,6.6v-5.6h-5.6v5.6Z"/><polyline class="cls-1" points="76.82 1089.34 100.14 1066.02 69.05 1034.93"/><polyline class="cls-1" points="76.82 1081.57 92.37 1066.02 69.05 1042.7"/><polyline class="cls-1" points="76.82 1073.8 84.6 1066.02 69.05 1050.47"/><line class="cls-1" x1="162.33" y1="1128.21" x2="123.46" y2="1167.08"/><polyline class="cls-1" points="162.33 1135.98 139.01 1159.3 139.01 1167.08"/><circle class="cls-2" cx="139.01" cy="1167.08" r="3.76"/><path d="M134.75,1167.08a4.26,4.26,0,1,1,4.26,4.26,4.26,4.26,0,0,1-4.26-4.26Zm7.52,0a3.26,3.26,0,1,0-3.26,3.26,3.26,3.26,0,0,0,3.26-3.26Z"/><polyline class="cls-1" points="170.1 1135.98 154.56 1151.53 154.56 1190.4"/><polyline class="cls-1" points="69.05 1027.15 107.92 1066.02 76.82 1097.12"/><polyline class="cls-1" points="356.66 1050.47 434.4 1050.47 449.94 1066.02"/><polyline class="cls-1" points="356.66 1019.38 411.08 1019.38 426.63 1034.93 457.72 1034.93"/><polyline class="cls-1" points="356.66 1027.15 411.08 1027.15 426.63 1042.7 449.94 1042.7 457.72 1042.7"/><polyline class="cls-1" points="356.66 1034.93 403.31 1034.93 411.08 1042.7 379.98 1042.7"/><rect class="cls-2" x="376.68" y="1039.4" width="6.6" height="6.6"/><path d="M376.18,1038.9h7.61v7.6h-7.61Zm6.61,1h-5.61v5.6h5.61Z"/><polyline class="cls-1" points="255.61 840.59 255.61 879.46 247.84 887.23 247.84 895.01 224.52 871.69 193.42 871.69"/><path class="cls-2" d="M193.42,867.93a3.76,3.76,0,1,0,3.76,3.76A3.76,3.76,0,0,0,193.42,867.93Z"/><path d="M193.42,867.43a4.26,4.26,0,1,1-4.26,4.26,4.26,4.26,0,0,1,4.26-4.26Zm0,7.52a3.26,3.26,0,1,0-3.26-3.26,3.27,3.27,0,0,0,3.26,3.26Z"/><polyline class="cls-1" points="286.7 902.78 286.7 879.46 302.25 863.91 348.89 863.91"/><polyline class="cls-1" points="255.61 887.23 263.38 879.46 263.35 840.24"/><polyline class="cls-1" points="255.61 895.01 271.16 879.46 271.16 848.37 310.02 848.37"/><polyline class="cls-1" points="278.93 887.23 278.93 856.14 294.48 856.14 286.7 863.91"/><path class="cls-2" d="M284.05,861.25a3.76,3.76,0,1,0,5.31,0A3.76,3.76,0,0,0,284.05,861.25Z"/><path d="M283.69,860.9a4.26,4.26,0,1,1,0,6,4.27,4.27,0,0,1,0-6Zm5.32,5.32a3.26,3.26,0,1,0-4.61,0,3.27,3.27,0,0,0,4.61,0Z"/><polyline class="cls-1" points="341.12 957.19 372.21 957.19 387.76 972.74 449.94 972.74"/><polyline class="cls-1" points="341.12 964.97 372.21 964.97 379.98 972.74 341.12 972.74"/><polyline class="cls-1" points="341.12 1003.83 434.4 1003.83 457.72 1027.15"/><polyline class="cls-1" points="341.12 996.06 442.17 996.06 457.72 1011.61"/><line class="cls-1" x1="341.12" y1="988.29" x2="411.08" y2="988.29"/><rect class="cls-2" x="407.78" y="984.99" width="6.6" height="6.6"/><path d="M414.88,992.09h-7.6v-7.6h7.6Zm-6.6-1h5.6v-5.6h-5.6Z"/><polyline class="cls-1" points="356.66 1112.66 372.21 1112.66 411.08 1151.53"/><polyline class="cls-1" points="434.4 1128.21 395.53 1128.21 418.85 1151.53"/><polyline class="cls-1" points="426.63 1135.98 411.08 1135.98 418.85 1143.76"/><polyline class="cls-1" points="395.53 1174.85 372.21 1151.53 364.44 1151.53"/><line class="cls-1" x1="364.44" y1="1143.76" x2="372.21" y2="1143.76"/><rect class="cls-2" x="368.91" y="1140.45" width="6.6" height="6.6"/><path d="M376,1147.56h-7.6V1140H376Zm-6.6-1H375V1141h-5.6Z"/><line class="cls-1" x1="387.76" y1="1174.85" x2="356.66" y2="1143.76"/><polyline class="cls-1" points="387.76 1182.62 379.98 1174.85 364.44 1159.3 356.66 1159.3 356.66 1128.21 372.21 1128.21 395.53 1151.53 403.31 1151.53 372.21 1120.43 364.44 1120.43"/><polyline class="cls-1" points="247.84 1151.53 240.06 1159.3 240.06 1221.49"/><polyline class="cls-1" points="224.52 1151.53 216.74 1159.3 216.74 1221.49"/><polyline class="cls-1" points="224.52 1221.49 224.52 1174.85 232.29 1174.85 232.29 1221.49"/><polyline class="cls-1" points="232.29 1151.53 224.52 1159.3 224.52 1167.08 232.29 1167.08 232.29 1159.3 240.06 1151.53"/><polyline class="cls-1" points="278.93 1143.76 278.93 1190.4 255.61 1213.72 255.61 1229.26"/><polyline class="cls-1" points="294.48 1221.49 294.48 1198.17 310.02 1213.72 310.02 1221.49"/><polyline class="cls-1" points="341.12 1205.94 325.57 1190.4 317.8 1182.62 325.57 1182.62 348.89 1205.94 356.66 1205.94"/><polyline class="cls-1" points="356.66 1198.17 348.89 1198.17 341.12 1190.4 341.12 1182.62 356.66 1167.08 379.98 1190.4"/><polyline class="cls-1" points="372.21 1190.4 356.66 1174.85 348.89 1182.62 364.44 1198.17"/><polygon class="cls-1" points="170.1 1198.17 193.42 1198.17 193.42 1190.4 177.88 1190.4 177.88 1167.08 170.1 1167.08 170.1 1198.17"/><polygon class="cls-1" points="185.65 1167.08 185.65 1174.85 201.2 1174.85 201.2 1198.17 193.42 1198.17 193.42 1205.94 216.74 1205.94 216.74 1198.17 208.97 1198.17 208.97 1167.08 185.65 1167.08"/><polyline class="cls-1" points="162.33 1198.17 162.33 1159.3 170.1 1151.53"/><line class="cls-5" x1="263.35" y1="920.91" x2="263.35" y2="1004.86"/><path class="cls-6" d="M1705.77,955a85.78,85.78,0,1,1-101.61,0"/><line class="cls-7" x1="1654.97" y1="915.55" x2="1654.97" y2="1001.71"/><path class="cls-1" d="M627,984v1.48"/></svg>