<svg id="Layer_1" data-name="Layer 1" xmlns="http://www.w3.org/2000/svg" viewBox="0 0 2000 2000"><defs><style>.cls-1,.cls-4,.cls-5,.cls-6,.cls-7{fill:none;}.cls-1,.cls-3,.cls-4,.cls-6,.cls-7{stroke:#000;}.cls-1,.cls-3,.cls-4,.cls-5,.cls-6,.cls-7{stroke-miterlimit:10;}.cls-2,.cls-3{fill:#fff;}.cls-4{stroke-width:8px;}.cls-5{stroke:#fff;}.cls-6,.cls-7{stroke-linecap:square;}.cls-6{stroke-width:12px;}.cls-7{stroke-width:11px;}</style></defs><title>Artboard 1</title><path d="M549.54,887.16,549,898.51H485.15v43h52.17v11.35H485.15v45.59h64.39l.37,11.35H471.83V887.16Z"/><path d="M580.31,887.16l62.39,89.71,9.85,16.66h.18L652,975V887.16h12.77v122.66h-15.5L586.7,920.11l-9.49-16.48H577l.55,16.48v89.71H565.17V887.16Z"/><path d="M741.7,885c14.23,0,27.18,3.84,36.85,9.89l-4.93,10.43a63.21,63.21,0,0,0-32.47-8.42c-12.22,0-22.07,2.93-29.55,9.7-12.22,11-17,26.92-17,43,0,25.81,12.22,50.9,47.24,50.9,13.32,0,24.08-3.3,34.48-8.06l3.83,10.07a83.9,83.9,0,0,1-39.58,9.7c-40.87,0-60-27.82-60-61.51C680.59,917.55,699.93,885,741.7,885Z"/><path d="M827.83,885c32.11,0,51.63,11.53,51.63,35.33,0,17.22-9.67,30-28.82,35.71l26.81,43.94a66.66,66.66,0,0,1,5.29,9.88H868.15L837.5,958.74a102.36,102.36,0,0,1-13.32.74c-4.37,0-10-.19-15.5-.74v51.08H795.36V887.89A198.31,198.31,0,0,1,827.83,885ZM849,944.28c10.58-4,16.42-11.35,16.42-22.89,0-16.47-13.5-24.71-37.39-24.71A143.9,143.9,0,0,0,808.68,898v49.25c5.47.55,10.76.73,15.5.73C833.49,947.94,842.24,947,849,944.28Z"/><path d="M985,887.16c-2,4.76-5.84,10.43-9.3,16.11l-35.39,56v50.53H927.18V959.29l-34.66-56c-3.46-5.49-7.11-11.35-9.12-16.11h15l25.17,41.37,10.4,17.4h.18l36.67-58.77Z"/><path d="M1023.44,885c36.49-.55,53.09,13.18,53.09,37.35,0,28-19.7,42.11-54.55,42.11a121.25,121.25,0,0,1-16.23-1.1v46.5H992.43V887.89A224.66,224.66,0,0,1,1023.44,885ZM1045.88,949c11.31-4.58,16.6-13.55,16.6-25.82,0-17.57-11.86-26.54-37.4-26.54a136.44,136.44,0,0,0-19.33,1.28v54.19a119.17,119.17,0,0,0,14.23.73C1030.56,952.88,1039.5,951.79,1045.88,949Z"/><path d="M1181.63,887.16l-.55,11.53h-44.87v111.13h-13.32V898.69h-45.24l-.37-11.53Z"/><path d="M1335.05,887.16l62.39,89.71,9.85,16.66h.18l-.73-18.49V887.16h12.77v122.66H1404l-62.57-89.71L1332,903.63h-.18l.55,16.48v89.71h-12.41V887.16Z"/><polyline class="cls-1" points="201.17 876.59 243.45 918.87 349.15 918.87 402 918.87 412.57 918.87"/><path class="cls-2" d="M198.51,879.25a3.76,3.76,0,1,1,5.32,0A3.76,3.76,0,0,1,198.51,879.25Z"/><path d="M198.15,879.6a4.26,4.26,0,1,0,0-6,4.27,4.27,0,0,0,0,6Zm5.32-5.31a3.26,3.26,0,1,1-4.61,0,3.27,3.27,0,0,1,4.61,0Z"/><path class="cls-2" d="M412.57,922.63a3.76,3.76,0,1,0-3.75-3.76A3.76,3.76,0,0,0,412.57,922.63Z"/><path d="M412.57,923.13a4.26,4.26,0,1,1,4.26-4.26,4.26,4.26,0,0,1-4.26,4.26Zm0-7.52a3.26,3.26,0,1,0,3.26,3.26,3.26,3.26,0,0,0-3.26-3.26Z"/><polyline class="cls-1" points="222.31 876.59 243.45 897.73 370.29 897.73 380.86 908.3 402 908.3"/><rect class="cls-2" x="219.01" y="873.29" width="6.6" height="6.6" transform="translate(-554.73 413.95) rotate(-45)"/><path d="M216.93,876.59l5.38,5.38,5.37-5.38-5.37-5.37Zm5.38,4-4-4,4-4,4,4Z"/><path class="cls-2" d="M402,912.06a3.76,3.76,0,1,0-3.76-3.76A3.76,3.76,0,0,0,402,912.06Z"/><path d="M402,912.56a4.26,4.26,0,1,1,4.26-4.26,4.27,4.27,0,0,1-4.26,4.26Zm0-7.52a3.26,3.26,0,1,0,3.26,3.26A3.27,3.27,0,0,0,402,905Z"/><polyline class="cls-1" points="211.74 918.87 201.17 908.3 190.6 908.3 190.6 940.01 317.44 940.01 370.29 940.01 402 940.01 412.57 950.59"/><path class="cls-2" d="M214.4,916.21a3.76,3.76,0,1,1-5.32,0A3.78,3.78,0,0,1,214.4,916.21Z"/><path d="M214.75,915.86a4.26,4.26,0,1,0,0,6,4.26,4.26,0,0,0,0-6Zm-5.32,5.32a3.26,3.26,0,1,1,4.61,0,3.27,3.27,0,0,1-4.61,0Z"/><path class="cls-2" d="M409.92,953.24a3.75,3.75,0,1,0,0-5.31A3.75,3.75,0,0,0,409.92,953.24Z"/><path d="M409.56,953.6a4.26,4.26,0,1,1,6,0,4.27,4.27,0,0,1-6,0Zm5.32-5.32a3.26,3.26,0,1,0,0,4.61,3.27,3.27,0,0,0,0-4.61Z"/><polyline class="cls-1" points="217.02 950.59 185.31 950.59 206.45 971.73 227.59 971.73"/><path class="cls-2" d="M217,946.82a3.76,3.76,0,1,1-3.76,3.76A3.76,3.76,0,0,1,217,946.82Z"/><path d="M217,946.32a4.26,4.26,0,1,0,4.26,4.26,4.27,4.27,0,0,0-4.26-4.26Zm0,7.52a3.26,3.26,0,1,1,3.26-3.26,3.26,3.26,0,0,1-3.26,3.26Z"/><polyline class="cls-1" points="391.43 876.59 380.86 876.59 370.29 887.16 349.15 887.16 254.02 887.16 243.45 876.59 243.45 866.02 232.88 866.02"/><path class="cls-2" d="M391.43,872.83a3.76,3.76,0,1,1-3.76,3.76A3.76,3.76,0,0,1,391.43,872.83Z"/><path d="M391.43,872.33a4.26,4.26,0,1,0,4.26,4.26,4.27,4.27,0,0,0-4.26-4.26Zm0,7.52a3.26,3.26,0,1,1,3.26-3.26,3.27,3.27,0,0,1-3.26,3.26Z"/><path class="cls-2" d="M232.88,862.26a3.76,3.76,0,1,0,3.76,3.76A3.76,3.76,0,0,0,232.88,862.26Z"/><path d="M232.88,861.76a4.26,4.26,0,1,1-4.26,4.26,4.26,4.26,0,0,1,4.26-4.26Zm0,7.52a3.26,3.26,0,1,0-3.26-3.26,3.26,3.26,0,0,0,3.26,3.26Z"/><line class="cls-1" x1="215.35" y1="961.16" x2="243.45" y2="961.16"/><rect class="cls-2" x="212.24" y="957.85" width="6.6" height="6.6"/><path d="M211.74,965h7.6v-7.61h-7.6Zm6.6-1h-5.6v-5.61h5.6Z"/><polyline class="cls-1" points="359.72 982.3 380.86 982.3 402 1003.44"/><path class="cls-2" d="M399.35,1006.1a3.76,3.76,0,1,0,0-5.32A3.77,3.77,0,0,0,399.35,1006.1Z"/><path d="M399,1006.45a4.26,4.26,0,1,1,6,0,4.27,4.27,0,0,1-6,0Zm5.32-5.32a3.26,3.26,0,1,0,0,4.61,3.27,3.27,0,0,0,0-4.61Z"/><polyline class="cls-1" points="359.72 992.87 380.86 992.87 402 1014.01 380.86 1014.01 380.86 1003.44"/><path class="cls-2" d="M384.62,1003.44a3.76,3.76,0,1,0-3.76,3.76A3.76,3.76,0,0,0,384.62,1003.44Z"/><path d="M385.12,1003.44a4.26,4.26,0,1,1-4.26-4.26,4.26,4.26,0,0,1,4.26,4.26Zm-7.52,0a3.26,3.26,0,1,0,3.26-3.26,3.27,3.27,0,0,0-3.26,3.26Z"/><rect class="cls-3" x="254.02" y="876.59" width="84.56" height="63.42"/><path class="cls-4" d="M427.75,955A131.47,131.47,0,1,1,296.28,823.49,131.47,131.47,0,0,1,427.75,955Z"/><path d="M296.28,1039.26c-33.68,0-16.89,0-50.57,0-1.26.06-7.61,0-7.61,0-8.56.11-11.13-3.9-11.11-10.66.07-18.66-.41-59,.35-77.67.3-7.36,3.54-9.94,5.21-11.44,2.47-2.21,6.32-2.14,6.32-5.08,0-12.08-.33-24.18.29-36.23,1.08-21.07,17-38.85,37.86-41.66,10.53-1.41,7.39-1,19.26-1m0,22.89c-8.55-.3-4.39-.08-12.93.23-10.92.39-20.55,9-21.12,19.85-.65,12.17-.15,24.4-.15,37h34.2m0-80v22.89l-12.93.23"/><path d="M296.28,855.46c11.87.1,8.73-.37,19.26,1,20.91,2.81,36.78,20.6,37.86,41.66.62,12.06.33,24.16.29,36.24,0,2.93,3.85,2.86,6.32,5.08,1.67,1.49,4.91,4.07,5.21,11.43.76,18.65.28,59,.35,77.67,0,6.76-2.55,10.78-11.11,10.67,0,0-6.35,0-7.61,0-33.68,0-16.89,0-50.57,0m0-103.83h34.2c0-12.59.5-24.82-.15-37-.57-10.81-10.2-19.47-21.12-19.86-8.54-.31-4.38-.52-12.93-.23m12.93.23-12.93-.23V855.46"/><path class="cls-2" d="M315.27,961.5V971h-3.16a2.15,2.15,0,0,0,0,.23c0,2.34,0,4.69,0,7a7.72,7.72,0,0,1-.25,2.09,9.18,9.18,0,0,1-.92,2.16,10.67,10.67,0,0,1-1.36,1.84,1.81,1.81,0,0,1-.21.18l-1.84,1.74-1.32,1.24-1.11,1L304,989.59l-1.11,1.06-1.15,1.09-1.14,1.08c-.49.47-1,.93-1.48,1.41a3,3,0,0,0-.51.67,4.71,4.71,0,0,0-.66,1.7,4.76,4.76,0,0,0-.07.75v17.28a7.87,7.87,0,0,1,5.77,4.76,7.62,7.62,0,0,1,.18,5.54,7.9,7.9,0,0,1-8.39,5.36,7.93,7.93,0,0,1-5.52-12.58,7.81,7.81,0,0,1,4.81-3.07c0-.08,0-.15,0-.22v-5.17a4.31,4.31,0,0,0-.29-1.59,4.54,4.54,0,0,0-.8-1.4c-.26-.29-.56-.56-.84-.83l-1.42-1.33-1.4-1.32-1.11-1-1.13-1.07-1-1-1.29-1.22-1.27-1.23c-.38-.36-.78-.71-1.15-1.08a8.92,8.92,0,0,1-.87-1.06,12.39,12.39,0,0,1-.76-1.26c-.09-.17-.16-.35-.24-.53a7.52,7.52,0,0,1-.64-3.1v-7.47c0-.13,0-.18-.16-.23a4.66,4.66,0,0,1-1.52-1,4.76,4.76,0,0,1-1-1.38,4.61,4.61,0,0,1-.25-3.53,4.36,4.36,0,0,1,.68-1.32,4.88,4.88,0,0,1,.92-.95,5.17,5.17,0,0,1,1.43-.76,4.32,4.32,0,0,1,2.44-.14,4.47,4.47,0,0,1,1.57.63A4.76,4.76,0,0,1,286,975.5a4.69,4.69,0,0,1,.72,3.28,4.19,4.19,0,0,1-.4,1.36,4.81,4.81,0,0,1-2.52,2.35l-.16.07,0,0s0,.12,0,.18q0,3.84,0,7.7a4.45,4.45,0,0,0,.6,2.22,4.34,4.34,0,0,0,1,1.21c.26.22.48.47.73.71l.83.79.9.86.76.7c.29.27.58.54.86.82l.68.66,2.52,2.37,1.12,1.07,1,.92a.15.15,0,0,1,.06.05l0,0s0,0,0,0q0-24.13,0-48.28a1.25,1.25,0,0,0,0-.15h-3.84c0-.22,5.25-9.19,5.44-9.46.1.15.2.3.29.45.37.63.73,1.26,1.09,1.89l.81,1.43c.26.45.53.9.8,1.35.07.14.14.27.22.4l.93,1.6.87,1.55c.12.2.24.41.37.61a1.44,1.44,0,0,1,.07.16,6.82,6.82,0,0,1-.78,0h-3.1V991l.43-.4,1.85-1.76,1.08-1,1-1,1.13-1.07,1.11-1,1.12-1.07c.47-.44.95-.87,1.41-1.31.29-.27.57-.55.84-.83a2.09,2.09,0,0,0,.23-.29,4.85,4.85,0,0,0,.86-2.81v-.78c0-2.11,0-4.23,0-6.34,0-.09,0-.19,0-.31h-3.1c-.06-.17-.08-9,0-9.48C306,961.47,315,961.46,315.27,961.5Z"/><polyline class="cls-1" points="359.72 977.01 391.43 977.01 409.71 995.29"/><path class="cls-2" d="M406.9,997.8a3.76,3.76,0,1,0,0-5.32A3.76,3.76,0,0,0,406.9,997.8Z"/><path d="M406.55,998.15a4.26,4.26,0,1,1,6,0,4.26,4.26,0,0,1-6,0Zm5.32-5.32a3.26,3.26,0,1,0,0,4.61,3.27,3.27,0,0,0,0-4.61Z"/><polyline class="cls-1" points="365.01 971.73 412.57 971.73 412.57 982.3"/><rect class="cls-2" x="409.27" y="979" width="6.6" height="6.6"/><path d="M408.77,986.1v-7.6h7.61v7.6Zm1-6.6v5.6h5.61v-5.6Z"/><polyline class="cls-1" points="227.59 982.3 190.6 982.3 174.74 998.15"/><polyline class="cls-1" points="227.59 987.58 195.88 987.58 174.74 1008.72"/><polyline class="cls-1" points="227.59 992.87 201.17 992.87 180.03 1014.01"/><polyline class="cls-1" points="227.59 998.15 206.45 998.15 195.88 1008.72"/><path class="cls-2" d="M193.22,1006.06a3.76,3.76,0,1,0,5.32,0A3.78,3.78,0,0,0,193.22,1006.06Z"/><path d="M192.87,1005.71a4.26,4.26,0,1,1,0,6,4.26,4.26,0,0,1,0-6Zm5.32,5.32a3.26,3.26,0,1,0-4.61,0,3.27,3.27,0,0,0,4.61,0Z"/><polyline class="cls-1" points="227.59 1003.44 211.74 1003.44 195.88 1019.29 185.31 1019.29"/><polyline class="cls-1" points="227.59 1014.01 206.45 1035.15 201.17 1035.15 201.17 1024.58 211.74 1014.01"/><path class="cls-2" d="M214.4,1016.67a3.76,3.76,0,1,0-5.32,0A3.78,3.78,0,0,0,214.4,1016.67Z"/><path d="M214.75,1017a4.26,4.26,0,1,1,0-6,4.26,4.26,0,0,1,0,6Zm-5.32-5.32a3.26,3.26,0,1,0,4.61,0,3.27,3.27,0,0,0-4.61,0Z"/><polyline class="cls-1" points="269.88 860.74 264.59 855.45 227.59 855.45 217.02 866.02"/><circle class="cls-2" cx="217.02" cy="866.02" r="3.76" transform="translate(-159.86 56.67) rotate(-10.9)"/><path d="M214,863a4.26,4.26,0,1,1,0,6,4.26,4.26,0,0,1,0-6Zm5.32,5.32a3.26,3.26,0,1,0-4.61,0,3.27,3.27,0,0,0,4.61,0Z"/><polyline class="cls-1" points="343.87 876.59 365.01 876.59 375.58 866.02 359.72 866.02 354.44 871.31"/><path class="cls-2" d="M351.78,868.65a3.76,3.76,0,1,0,5.32,0A3.76,3.76,0,0,0,351.78,868.65Z"/><path d="M351.43,868.29a4.26,4.26,0,1,1,0,6,4.26,4.26,0,0,1,0-6Zm5.31,5.32a3.26,3.26,0,1,0-4.61,0,3.27,3.27,0,0,0,4.61,0Z"/><polyline class="cls-1" points="328.01 860.74 354.44 860.74 359.72 855.45"/><path class="cls-2" d="M362.38,858.11a3.76,3.76,0,1,0-5.32,0A3.76,3.76,0,0,0,362.38,858.11Z"/><path d="M362.74,858.46a4.26,4.26,0,1,1,0-6,4.27,4.27,0,0,1,0,6C361.07,860.12,364.4,856.8,362.74,858.46Zm-5.32-5.31a3.26,3.26,0,1,0,4.61,0,3.27,3.27,0,0,0-4.61,0C356.15,854.42,358.69,851.87,357.42,853.15Z"/><polyline class="cls-1" points="275.16 850.17 285.73 850.17 285.73 834.31"/><path class="cls-2" d="M289.49,834.31a3.76,3.76,0,1,0-3.76,3.76A3.76,3.76,0,0,0,289.49,834.31Z"/><path d="M290,834.31a4.26,4.26,0,1,1-4.26-4.26,4.26,4.26,0,0,1,4.26,4.26Zm-7.52,0a3.26,3.26,0,1,0,3.26-3.26,3.26,3.26,0,0,0-3.26,3.26Z"/><polyline class="cls-1" points="333.3 855.45 338.58 855.45 349.15 844.88 328.01 844.88 312.16 860.74"/><path class="cls-2" d="M333.3,859.21a3.76,3.76,0,1,1,3.76-3.76A3.76,3.76,0,0,1,333.3,859.21Z"/><path d="M333.3,859.71a4.26,4.26,0,1,0-4.26-4.26,4.26,4.26,0,0,0,4.26,4.26Zm0-7.52a3.26,3.26,0,1,1-3.26,3.26,3.27,3.27,0,0,1,3.26-3.26Z"/><polyline class="cls-1" points="296.3 1035.15 285.73 1045.72 285.73 1072.14"/><path class="cls-2" d="M282,1072.14a3.76,3.76,0,1,0,3.76-3.76A3.76,3.76,0,0,0,282,1072.14Z"/><path d="M281.47,1072.14a4.26,4.26,0,1,1,4.26,4.26,4.27,4.27,0,0,1-4.26-4.26Zm7.52,0a3.26,3.26,0,1,0-3.26,3.26,3.27,3.27,0,0,0,3.26-3.26Z"/><polyline class="cls-1" points="296.3 1057.96 296.3 1045.72 306.87 1035.15"/><rect class="cls-2" x="293" y="1054.47" width="6.6" height="6.6"/><path d="M300.1,1061.57V1054h-7.6v7.6Zm-1-6.6v5.6h-5.6V1055Z"/><polyline class="cls-1" points="312.16 1035.15 312.16 1072.14 306.87 1072.14"/><path class="cls-2" d="M306.87,1068.38a3.76,3.76,0,1,0,3.76,3.76A3.76,3.76,0,0,0,306.87,1068.38Z"/><path d="M306.87,1067.88a4.26,4.26,0,1,1-4.26,4.26,4.27,4.27,0,0,1,4.26-4.26Zm0,7.52a3.26,3.26,0,1,0-3.26-3.26,3.26,3.26,0,0,0,3.26,3.26Z"/><polyline class="cls-1" points="317.44 1035.15 317.44 1056.29 328.01 1066.86"/><circle class="cls-2" cx="328.01" cy="1066.86" r="3.76" transform="translate(-404.4 224.63) rotate(-23.92)"/><path d="M325,1069.87a4.26,4.26,0,1,1,6,0,4.26,4.26,0,0,1-6,0Zm5.32-5.32a3.26,3.26,0,1,0,0,4.61,3.27,3.27,0,0,0,0-4.61Z"/><polyline class="cls-1" points="343.87 1035.15 343.87 1045.72 328.01 1045.72"/><path class="cls-2" d="M328,1042a3.76,3.76,0,1,0,3.76,3.76A3.76,3.76,0,0,0,328,1042Z"/><path d="M328,1041.46a4.26,4.26,0,1,1-4.26,4.26,4.26,4.26,0,0,1,4.26-4.26Zm0,7.52a3.26,3.26,0,1,0-3.26-3.26A3.26,3.26,0,0,0,328,1049Z"/><polyline class="cls-1" points="354.44 1035.15 354.44 1045.72 349.15 1051 333.3 1051 328.01 1056.29"/><path class="cls-2" d="M325.35,1053.63a3.76,3.76,0,1,0,5.32,0A3.78,3.78,0,0,0,325.35,1053.63Z"/><path d="M325,1053.28a4.26,4.26,0,1,1,0,6,4.26,4.26,0,0,1,0-6Zm5.32,5.31a3.26,3.26,0,1,0-4.61,0,3.27,3.27,0,0,0,4.61,0Z"/><polyline class="cls-1" points="243.45 934.73 195.88 934.73 195.88 918.87 201.17 924.16"/><rect class="cls-2" x="197.87" y="920.86" width="6.6" height="6.6" transform="translate(-594.56 412.92) rotate(-45)"/><path d="M201.17,929.53l-5.38-5.37,5.38-5.38,5.37,5.38Zm-4-5.37,4,4,4-4-4-4Z"/><polyline class="cls-1" points="243.45 929.44 217.02 929.44 211.74 929.44 222.31 918.87 201.17 897.73"/><path class="cls-2" d="M203.83,895.07a3.76,3.76,0,1,0,0,5.32A3.78,3.78,0,0,0,203.83,895.07Z"/><path d="M204.18,894.72a4.26,4.26,0,1,1-6,0,4.26,4.26,0,0,1,6,0ZM198.86,900a3.26,3.26,0,1,0,0-4.61,3.27,3.27,0,0,0,0,4.61Z"/><polyline class="cls-1" points="243.45 924.16 222.31 924.16 232.88 913.59 206.45 887.16 185.31 887.16"/><polyline class="cls-1" points="227.59 966.44 206.45 966.44 195.88 955.87 232.88 955.87 222.31 945.3 180.03 945.3 185.31 940.01 185.31 913.59"/><circle class="cls-2" cx="185.31" cy="913.59" r="3.76"/><path d="M189.57,913.59a4.26,4.26,0,1,1-4.26-4.26,4.26,4.26,0,0,1,4.26,4.26Zm-7.52,0a3.26,3.26,0,1,0,3.26-3.26,3.26,3.26,0,0,0-3.26,3.26Z"/><polyline class="cls-1" points="232.88 977.01 195.88 977.01 174.74 955.87 174.74 940.01 180.03 934.73 180.03 929.44"/><rect class="cls-2" x="176.73" y="926.14" width="6.6" height="6.6"/><path d="M183.83,925.64v7.6h-7.6v-7.6Zm-1,6.6v-5.6h-5.6v5.6Z"/><polyline class="cls-1" points="169.46 992.87 185.31 977.01 164.17 955.87"/><polyline class="cls-1" points="169.46 987.58 180.03 977.01 164.17 961.15"/><polyline class="cls-1" points="169.46 982.3 174.74 977.01 164.17 966.44"/><line class="cls-1" x1="227.59" y1="1019.29" x2="201.17" y2="1045.72"/><polyline class="cls-1" points="227.59 1024.58 211.74 1040.43 211.74 1045.72"/><circle class="cls-2" cx="211.74" cy="1045.72" r="3.76"/><path d="M207.48,1045.72a4.26,4.26,0,1,1,4.26,4.26,4.26,4.26,0,0,1-4.26-4.26Zm7.52,0a3.26,3.26,0,1,0-3.26,3.26,3.26,3.26,0,0,0,3.26-3.26Z"/><polyline class="cls-1" points="232.88 1024.58 222.31 1035.15 222.31 1061.57"/><polyline class="cls-1" points="164.17 950.59 190.6 977.01 169.46 998.15"/><polyline class="cls-1" points="359.72 966.44 412.57 966.44 423.14 977.01"/><polyline class="cls-1" points="359.72 945.3 396.72 945.3 407.29 955.87 428.43 955.87"/><polyline class="cls-1" points="359.72 950.59 396.72 950.59 407.29 961.15 423.14 961.15 428.43 961.15"/><polyline class="cls-1" points="359.72 955.87 391.43 955.87 396.72 961.15 375.58 961.15"/><rect class="cls-2" x="372.28" y="957.85" width="6.6" height="6.6"/><path d="M371.78,957.35h7.6V965h-7.6Zm6.6,1h-5.6V964h5.6Z"/><polyline class="cls-1" points="291.01 823.74 291.01 850.17 285.73 855.45 285.73 860.74 269.88 844.88 248.73 844.88"/><path class="cls-2" d="M248.73,841.12a3.76,3.76,0,1,0,3.76,3.76A3.76,3.76,0,0,0,248.73,841.12Z"/><path d="M248.73,840.62a4.26,4.26,0,1,1-4.26,4.26,4.26,4.26,0,0,1,4.26-4.26Zm0,7.52a3.26,3.26,0,1,0-3.26-3.26,3.26,3.26,0,0,0,3.26,3.26Z"/><polyline class="cls-1" points="312.16 866.02 312.16 850.17 322.73 839.6 354.44 839.6"/><polyline class="cls-1" points="291.01 855.45 296.3 850.17 296.28 823.5"/><polyline class="cls-1" points="291.01 860.74 301.59 850.17 301.59 829.02 328.01 829.02"/><polyline class="cls-1" points="306.87 855.45 306.87 834.31 317.44 834.31 312.16 839.6"/><path class="cls-2" d="M309.5,836.94a3.75,3.75,0,1,0,5.31,0A3.75,3.75,0,0,0,309.5,836.94Z"/><path d="M309.14,836.58a4.26,4.26,0,1,1,0,6,4.27,4.27,0,0,1,0-6Zm5.32,5.32a3.26,3.26,0,1,0-4.61,0,3.27,3.27,0,0,0,4.61,0Z"/><polyline class="cls-1" points="349.15 903.02 370.29 903.02 380.86 913.59 423.14 913.59"/><polyline class="cls-1" points="349.15 908.3 370.29 908.3 375.58 913.59 349.15 913.59"/><polyline class="cls-1" points="349.15 934.73 412.57 934.73 428.43 950.59"/><polyline class="cls-1" points="349.15 929.44 417.86 929.44 428.43 940.01"/><line class="cls-1" x1="349.15" y1="924.16" x2="396.72" y2="924.16"/><rect class="cls-2" x="393.42" y="920.86" width="6.6" height="6.6"/><path d="M400.52,928h-7.6v-7.6h7.6Zm-6.6-1h5.6v-5.6h-5.6Z"/><polyline class="cls-1" points="359.72 1008.72 370.29 1008.72 396.72 1035.15"/><polyline class="cls-1" points="412.57 1019.29 386.15 1019.29 402 1035.15"/><polyline class="cls-1" points="407.29 1024.58 396.72 1024.58 402 1029.86"/><polyline class="cls-1" points="386.15 1051 370.29 1035.15 365.01 1035.15"/><line class="cls-1" x1="365.01" y1="1029.86" x2="370.29" y2="1029.86"/><rect class="cls-2" x="366.99" y="1026.56" width="6.6" height="6.6"/><path d="M374.09,1033.66h-7.6v-7.6h7.6Zm-6.6-1h5.6v-5.6h-5.6Z"/><line class="cls-1" x1="380.86" y1="1051" x2="359.72" y2="1029.86"/><polyline class="cls-1" points="380.86 1056.29 375.58 1051 365.01 1040.43 359.72 1040.43 359.72 1019.29 370.29 1019.29 386.15 1035.15 391.43 1035.15 370.29 1014.01 365.01 1014.01"/><polyline class="cls-1" points="285.73 1035.15 280.44 1040.43 280.44 1082.71"/><polyline class="cls-1" points="269.88 1035.15 264.59 1040.43 264.59 1082.71"/><polyline class="cls-1" points="269.88 1082.71 269.88 1051 275.16 1051 275.16 1082.71"/><polyline class="cls-1" points="275.16 1035.15 269.88 1040.43 269.88 1045.72 275.16 1045.72 275.16 1040.43 280.44 1035.15"/><polyline class="cls-1" points="306.87 1029.86 306.87 1061.57 291.01 1077.43 291.01 1088"/><polyline class="cls-1" points="317.44 1082.71 317.44 1066.86 328.01 1077.43 328.01 1082.71"/><polyline class="cls-1" points="349.15 1072.14 338.58 1061.57 333.3 1056.29 338.58 1056.29 354.44 1072.14 359.72 1072.14"/><polyline class="cls-1" points="359.72 1066.86 354.44 1066.86 349.15 1061.57 349.15 1056.29 359.72 1045.72 375.58 1061.57"/><polyline class="cls-1" points="370.29 1061.57 359.72 1051 354.44 1056.29 365.01 1066.86"/><polygon class="cls-1" points="232.88 1066.86 248.73 1066.86 248.73 1061.57 238.16 1061.57 238.16 1045.72 232.88 1045.72 232.88 1066.86"/><polygon class="cls-1" points="243.45 1045.72 243.45 1051 254.02 1051 254.02 1066.86 248.73 1066.86 248.73 1072.14 264.59 1072.14 264.59 1066.86 259.3 1066.86 259.3 1045.72 243.45 1045.72"/><polyline class="cls-1" points="227.59 1066.86 227.59 1040.43 232.88 1035.15"/><line class="cls-5" x1="296.28" y1="878.35" x2="296.28" y2="935.43"/><path class="cls-6" d="M1277,901.55a58.32,58.32,0,1,1-69.09,0"/><line class="cls-7" x1="1242.45" y1="874.7" x2="1242.45" y2="933.28"/><path class="cls-1" d="M543.52,921.27v1"/></svg>